<?xml version="1.0" standalone="no"?>
<!DOCTYPE svg PUBLIC "-//W3C//DTD SVG 20010904//EN"
 "http://www.w3.org/TR/2001/REC-SVG-20010904/DTD/svg10.dtd">
<svg version="1.0" xmlns="http://www.w3.org/2000/svg"
 width="1024.000000pt" height="1024.000000pt" viewBox="0 0 1024.000000 1024.000000"
 preserveAspectRatio="xMidYMid meet">

<g transform="translate(0.000000,1024.000000) scale(0.100000,-0.100000)"
fill="#000000" stroke="none">
<path d="M5648 7750 c-232 -5 -237 -5 -262 -29 -32 -30 -31 -27 -172 -471 -63
-201 -167 -525 -229 -720 -63 -195 -162 -508 -221 -695 -58 -187 -161 -513
-229 -725 -68 -212 -175 -549 -238 -750 -161 -508 -232 -732 -412 -1295 -98
-309 -154 -498 -150 -512 3 -12 15 -32 28 -43 22 -21 29 -21 372 -18 313 3
354 5 377 20 22 15 35 44 73 165 26 82 80 252 120 378 41 127 132 415 203 640
72 226 189 595 262 820 258 804 554 1733 802 2515 60 190 131 413 158 497 54
163 55 185 8 217 -24 17 -13 17 -490 6z"/>
<path d="M3356 6878 c-52 -40 -283 -217 -513 -394 -230 -176 -564 -432 -743
-567 -595 -452 -865 -658 -893 -685 -56 -53 -72 -115 -43 -170 24 -45 77 -89
401 -333 848 -640 1126 -850 1430 -1083 138 -106 266 -203 285 -216 19 -13 62
-47 95 -75 70 -61 95 -75 128 -75 33 0 74 41 82 81 3 19 5 203 3 409 -3 357
-4 377 -24 410 -28 48 -124 127 -433 358 -654 488 -766 573 -768 580 -1 4 93
79 209 167 117 88 329 250 473 361 143 110 307 236 364 280 58 43 118 96 135
117 l31 39 3 376 c2 208 0 392 -3 411 -9 47 -46 81 -89 81 -28 0 -54 -14 -130
-72z"/>
<path d="M6679 6921 l-29 -29 0 -396 c0 -354 2 -399 17 -432 18 -36 202 -178
975 -751 l257 -191 -402 -298 c-666 -496 -782 -588 -815 -647 -15 -28 -17 -74
-20 -407 -3 -408 0 -436 50 -473 41 -30 86 -17 155 47 32 29 135 111 228 182
260 198 526 402 905 694 190 146 460 353 600 460 314 238 446 344 466 375 41
63 23 139 -47 198 -51 43 -402 311 -974 742 -567 427 -1023 773 -1070 810
-184 149 -241 171 -296 116z"/>
</g>
</svg>
